<svg width="24" height="24" viewBox="0 0 24 24" fill="none" xmlns="http://www.w3.org/2000/svg">
<path d="M11.975 20.7752C11.8485 20.7752 11.7252 20.7627 11.6051 20.7377C11.485 20.7127 11.3666 20.6669 11.25 20.6002L5.49995 17.4502C5.26662 17.3169 5.07912 17.1346 4.93745 16.9033C4.79578 16.6721 4.72495 16.4127 4.72495 16.1252V11.0252L2.19995 9.6502C2.069 9.57591 1.97376 9.48305 1.91423 9.37162C1.85471 9.26019 1.82495 9.13638 1.82495 9.0002C1.82495 8.86401 1.85471 8.7402 1.91423 8.62877C1.97376 8.51734 2.069 8.42448 2.19995 8.3502L11.25 3.4002C11.3644 3.33353 11.4821 3.28353 11.6029 3.2502C11.7237 3.21686 11.8478 3.2002 11.975 3.2002C12.1022 3.2002 12.2262 3.21686 12.347 3.2502C12.4678 3.28353 12.5855 3.33353 12.7 3.4002L22.6 8.7752C22.7333 8.85853 22.8333 8.95825 22.9 9.07437C22.9666 9.19047 23 9.31575 23 9.4502V16.1752C23 16.3877 22.9277 16.5658 22.7831 16.7096C22.6385 16.8533 22.4593 16.9252 22.2456 16.9252C22.0318 16.9252 21.8541 16.8533 21.7125 16.7096C21.5708 16.5658 21.5 16.3877 21.5 16.1752V9.8752L19.225 11.0252V16.1252C19.225 16.4127 19.1541 16.6721 19.0125 16.9033C18.8708 17.1346 18.6833 17.3169 18.45 17.4502L12.7 20.6002C12.5833 20.6669 12.4649 20.7127 12.3448 20.7377C12.2247 20.7627 12.1014 20.7752 11.975 20.7752ZM11.975 13.3002L19.85 9.0002L11.975 4.7752L4.14995 9.0002L11.975 13.3002ZM11.975 19.3002L17.725 16.1252V11.9252L12.7 14.6252C12.5833 14.6919 12.4666 14.7377 12.35 14.7627C12.2333 14.7877 12.1083 14.8002 11.975 14.8002C11.8416 14.8002 11.7208 14.7877 11.6125 14.7627C11.5041 14.7377 11.3916 14.6919 11.275 14.6252L6.22495 11.8752V16.1252L11.975 19.3002Z" fill="#F1F1F1"/>
</svg>
