<svg width="25" height="24" viewBox="0 0 25 24" fill="none" xmlns="http://www.w3.org/2000/svg">
<path d="M12.5 11.9751C11.4 11.9751 10.5 11.6251 9.8 10.9251C9.1 10.2251 8.75 9.3251 8.75 8.2251C8.75 7.1251 9.1 6.2251 9.8 5.5251C10.5 4.8251 11.4 4.4751 12.5 4.4751C13.6 4.4751 14.5 4.8251 15.2 5.5251C15.9 6.2251 16.25 7.1251 16.25 8.2251C16.25 9.3251 15.9 10.2251 15.2 10.9251C14.5 11.6251 13.6 11.9751 12.5 11.9751ZM19 20.0001H6C5.5875 20.0001 5.23438 19.8532 4.94063 19.5595C4.64688 19.2657 4.5 18.9126 4.5 18.5001V17.6501C4.5 17.0168 4.65833 16.4751 4.975 16.0251C5.29167 15.5751 5.7 15.2334 6.2 15.0001C7.31667 14.5001 8.3875 14.1251 9.4125 13.8751C10.4375 13.6251 11.4667 13.5001 12.5 13.5001C13.5333 13.5001 14.5583 13.6293 15.575 13.8876C16.5917 14.1459 17.6577 14.5184 18.773 15.0049C19.2947 15.2404 19.713 15.5818 20.0278 16.0291C20.3426 16.4764 20.5 17.0168 20.5 17.6501V18.5001C20.5 18.9126 20.3531 19.2657 20.0594 19.5595C19.7656 19.8532 19.4125 20.0001 19 20.0001ZM6 18.5001H19V17.6501C19 17.3834 18.9208 17.1293 18.7625 16.8876C18.6042 16.6459 18.4083 16.4668 18.175 16.3501C17.1083 15.8334 16.1333 15.4793 15.25 15.2876C14.3667 15.0959 13.45 15.0001 12.5 15.0001C11.55 15.0001 10.625 15.0959 9.725 15.2876C8.825 15.4793 7.85 15.8334 6.8 16.3501C6.56667 16.4668 6.375 16.6459 6.225 16.8876C6.075 17.1293 6 17.3834 6 17.6501V18.5001ZM12.5 10.4751C13.15 10.4751 13.6875 10.2626 14.1125 9.8376C14.5375 9.4126 14.75 8.8751 14.75 8.2251C14.75 7.5751 14.5375 7.0376 14.1125 6.6126C13.6875 6.1876 13.15 5.9751 12.5 5.9751C11.85 5.9751 11.3125 6.1876 10.8875 6.6126C10.4625 7.0376 10.25 7.5751 10.25 8.2251C10.25 8.8751 10.4625 9.4126 10.8875 9.8376C11.3125 10.2626 11.85 10.4751 12.5 10.4751Z" fill="#F1F1F1"/>
</svg>
