<svg width="40" height="40" viewBox="0 0 40 40" fill="none" xmlns="http://www.w3.org/2000/svg">
<g clip-path="url(#clip0_41_133)">
<path d="M13.3668 14.0361L7.22474 9.21274L10.5471 4.49943C11.2848 3.45294 12.3688 2.73443 13.5912 2.48172L14.4028 2.48172C15.0697 2.48172 15.7314 2.6251 16.3472 2.90302L18.075 3.68292C18.4239 3.84039 18.7413 4.06677 19.0099 4.34958L19.3505 4.70835C19.7035 5.08006 19.7376 5.66655 19.4299 6.07081L13.3668 14.0361Z" fill="#402319"/>
<path d="M29.0534 18.2103L35.6607 14.9654L37.9949 20.2087C38.5315 21.4139 38.5081 22.8177 37.9314 24.0325L37.5514 24.6221C37.374 24.8973 37.1717 25.1548 36.9472 25.3912L36.1169 26.2657C35.6906 26.7147 35.1446 27.0222 34.552 27.147L33.1839 27.4352C32.9071 27.4352 32.6608 27.2661 32.5566 27.0046L29.0534 18.2103Z" fill="#402319"/>
<path d="M17.021 27.582L17.021 35.6511L11.6302 35.663C10.3052 35.6659 9.05607 35.0448 8.25867 33.9866L7.89454 33.344C7.74424 33.0787 7.61852 32.8003 7.51895 32.5121L7.06886 31.2097C6.88473 30.6769 6.85445 30.1031 6.98147 29.5538L7.33693 28.017C7.45399 27.7525 7.71596 27.582 8.00513 27.582L17.021 27.582Z" fill="#402319"/>
<mask id="mask0_41_133" style="mask-type:alpha" maskUnits="userSpaceOnUse" x="6" y="6" width="28" height="28">
<ellipse cx="20.2116" cy="19.7512" rx="13.3269" ry="13.2512" fill="#D9D9D9"/>
</mask>
<g mask="url(#mask0_41_133)">
<ellipse cx="20.2116" cy="19.7512" rx="13.3269" ry="13.2512" fill="#023059"/>
<path d="M32.6 19.1568C32.7288 19.1153 32.839 19.0534 32.9037 19.0106C33.0715 19.0487 33.1978 19.1153 33.2653 19.2021C33.2998 19.2465 33.319 19.2961 33.3207 19.3501C33.3223 19.4042 33.3064 19.4631 33.2701 19.5257C33.1974 19.6512 33.0432 19.7914 32.787 19.9379C32.5309 20.0844 32.1733 20.2369 31.6943 20.3875L31.6941 20.3869L31.6922 20.3888C31.5635 20.5215 31.477 20.6894 31.4085 20.8703C31.3596 20.9996 31.3197 21.1358 31.2803 21.2706C31.2647 21.3242 31.2491 21.3775 31.233 21.43C31.1198 21.8005 30.9826 22.1339 30.6309 22.259L30.6059 22.2679C30.337 22.3635 30.1426 22.4327 29.9897 22.5287C29.8317 22.628 29.718 22.7558 29.6114 22.9707C29.5049 23.1854 29.4053 23.4871 29.2755 23.934C29.2111 24.1557 29.1393 24.4133 29.0554 24.7139C28.9705 25.0185 28.8732 25.3671 28.7589 25.7672C27.7708 25.7437 27.1882 26.4856 26.7246 27.1922C26.6681 27.2784 26.6134 27.364 26.5599 27.4476C26.3935 27.7079 26.2392 27.9492 26.0812 28.1288C25.8725 28.366 25.6588 28.4937 25.4038 28.4163L25.4046 28.4137L25.3997 28.4168C25.1331 28.5906 24.9198 28.7181 24.7505 28.8066C24.5811 28.8952 24.4559 28.9448 24.3656 28.9631C24.2751 28.9814 24.2212 28.9681 24.1921 28.9335C24.1626 28.8984 24.1566 28.8397 24.1671 28.7627C24.1775 28.686 24.204 28.5928 24.2374 28.4903C24.256 28.433 24.2768 28.373 24.2981 28.3115C24.3149 28.2629 24.3321 28.2133 24.3488 28.1633C24.4244 27.9376 24.4907 27.7047 24.4726 27.5255C24.4125 26.9324 24.3545 26.234 24.3578 25.5467C24.3612 24.8593 24.4259 24.1834 24.6113 23.635C25.254 22.3361 25.3013 20.9124 25.0964 20.1105C25.0445 19.9073 24.9132 19.7539 24.7499 19.6254C24.6143 19.5186 24.4563 19.4286 24.3028 19.3412C24.2715 19.3234 24.2404 19.3057 24.2096 19.2879C24.0281 19.183 23.8613 19.0778 23.7546 18.9471C23.6483 18.8168 23.6016 18.6612 23.6606 18.4545L23.6698 18.4573L23.6588 18.4491C23.0874 18.0212 22.8265 17.5901 22.7844 17.1679C22.7424 16.7457 22.9192 16.331 23.2262 15.9359C23.8404 15.1455 24.9737 14.4359 25.9069 13.9038L25.907 13.904L25.908 13.903C26.0146 13.795 26.1143 13.7335 26.211 13.7085C26.3075 13.6835 26.4014 13.6948 26.4965 13.7333C26.5917 13.7719 26.6881 13.8378 26.7895 13.9219C26.8909 14.0059 26.9971 14.108 27.1118 14.2187L27.1226 14.2291C27.5799 14.6706 28.1729 15.2431 29.1348 15.3554C29.618 15.4118 29.9881 15.5461 30.2804 15.7414C30.5727 15.9368 30.7875 16.1934 30.9597 16.4951C31.132 16.7968 31.2616 17.1434 31.3836 17.5186C31.4334 17.6717 31.482 17.8296 31.5316 17.9912C31.6036 18.2254 31.678 18.4673 31.7619 18.7131C31.8516 18.976 31.99 19.1102 32.1422 19.1669C32.2941 19.2234 32.4586 19.2023 32.6 19.1568Z" fill="#117302" stroke="#4E7E4C" stroke-width="0.01"/>
<path d="M34.0666 17.1526C34.1056 17.292 34.1532 17.3846 34.2025 17.4509C34.2529 17.5186 34.3049 17.5588 34.3505 17.5934L34.3532 17.5955C34.3977 17.6293 34.4353 17.6579 34.4603 17.7025C34.4857 17.7478 34.4983 17.8102 34.49 17.9124C34.4669 18.1964 34.2733 18.4073 34.0139 18.532C33.7546 18.6567 33.4302 18.6948 33.1473 18.6335L33.1476 18.632L33.1438 18.634C33.1371 18.6376 33.1307 18.6386 33.1245 18.6373C33.1182 18.6359 33.1115 18.6322 33.1046 18.6257C33.0905 18.6126 33.0763 18.5894 33.0619 18.5566C33.0333 18.4913 33.0049 18.3908 32.9761 18.2665C32.9387 18.1052 32.9006 17.9047 32.8599 17.6906C32.8379 17.5747 32.8151 17.4548 32.7913 17.335C32.7234 16.9942 32.6471 16.6542 32.5553 16.4101C32.5094 16.2882 32.4595 16.1897 32.4046 16.127C32.3496 16.0643 32.2886 16.0366 32.2213 16.0591L32.2212 16.0585L32.2194 16.0603C31.944 16.3317 31.7055 16.5611 31.511 16.7146C31.4138 16.7914 31.3277 16.849 31.2537 16.8835C31.1795 16.918 31.1183 16.9288 31.0702 16.9134C31.0225 16.898 30.9862 16.8562 30.963 16.7818C30.9398 16.7073 30.93 16.6009 30.9347 16.4581C30.9443 16.1725 31.012 15.7428 31.1452 15.1345L31.1466 15.1348L31.1448 15.1313C31.0069 14.8508 30.8677 14.7158 30.7258 14.6541C30.5859 14.5932 30.4443 14.6039 30.3013 14.6147L30.2958 14.6151C30.1506 14.6261 30.0038 14.6363 29.8531 14.5732C29.7026 14.5102 29.5476 14.3736 29.3872 14.0893C29.0657 13.5193 28.7802 13.2066 28.5146 13.0549C28.2488 12.903 28.0035 12.9128 27.7634 12.9864C27.6434 13.0231 27.5248 13.0757 27.4055 13.132C27.3751 13.1464 27.3446 13.1609 27.3141 13.1756C27.2249 13.2183 27.135 13.2613 27.0436 13.2996C26.799 13.4023 26.5439 13.4712 26.2623 13.4108C26.1626 13.2281 26.1628 12.8921 26.3378 12.5914C26.5131 12.2901 26.8641 12.0242 27.466 11.9854L27.4668 11.9986L27.4706 11.9815L27.4706 11.9813C27.5446 11.6438 27.6 11.3905 27.6326 11.1994C27.6651 11.0084 27.6749 10.8788 27.657 10.7892C27.648 10.7442 27.6319 10.7091 27.6081 10.6812C27.5848 10.6539 27.5542 10.6339 27.5161 10.6185C27.6939 10.6365 27.8974 10.6435 28.1012 10.6281C28.4515 10.6015 28.804 10.5082 29.0296 10.288C29.0676 10.2826 29.0988 10.2684 29.122 10.2456C29.1456 10.2225 29.1607 10.1909 29.1668 10.1518C29.179 10.0737 29.1557 9.96497 29.0922 9.83035C28.9654 9.56147 28.677 9.18671 28.1816 8.74086C28.2508 8.63045 28.2939 8.54729 28.3294 8.47866L28.3299 8.47774C28.3656 8.40877 28.3936 8.35478 28.4327 8.3023C28.511 8.1973 28.6345 8.0979 28.9554 7.8994C29.7016 8.56861 30.425 8.54727 31.0497 8.4666C31.1239 8.45702 31.1966 8.44661 31.2678 8.43643C31.4969 8.40365 31.71 8.37316 31.9036 8.37991C32.1568 8.38873 32.3757 8.46132 32.5517 8.67597C32.8059 8.98573 33.1171 9.26155 33.4328 9.53715C33.4489 9.55122 33.4651 9.56528 33.4812 9.57935C33.7812 9.84105 34.0827 10.1041 34.3414 10.3977C34.6139 10.7071 34.8387 11.0502 34.9635 11.4609C35.0884 11.8716 35.1135 12.3502 34.9863 12.9308C34.9734 12.9897 34.9694 13.0722 34.9691 13.1692C34.9689 13.2371 34.9705 13.3123 34.9721 13.3917C34.9729 13.4258 34.9736 13.4606 34.9742 13.496C34.9783 13.7318 34.9771 13.9914 34.9304 14.2045C34.8837 14.4177 34.7919 14.5826 34.6163 14.6322C34.4402 14.682 34.1776 14.6165 33.7873 14.3625L33.7845 14.3666L33.7818 14.3708L33.777 14.3783M34.0666 17.1526L34.0678 17.147L34.0689 17.1421L34.07 17.1372C34.4795 17.2259 34.785 17.2146 35.0031 17.1338C35.2209 17.0531 35.3519 16.903 35.4126 16.7129C35.4733 16.5226 35.4637 16.2919 35.3993 16.0504C35.3351 15.8098 35.2168 15.559 35.0601 15.3273C34.5999 15.3875 34.27 15.1641 34.0603 14.9178C33.9552 14.7944 33.8802 14.6651 33.8339 14.5625C33.8107 14.5112 33.7947 14.4666 33.7857 14.4326C33.7812 14.4156 33.7784 14.4012 33.7773 14.3898C33.777 14.3856 33.7768 14.3817 33.777 14.3783M34.0666 17.1526C34.0658 17.1496 34.0649 17.1465 34.0641 17.1435L34.0666 17.1526L34.0666 17.1526ZM33.777 14.3783L33.7044 14.4893L33.7803 14.3641C33.7785 14.367 33.7776 14.3708 33.7772 14.375C33.7771 14.376 33.777 14.3771 33.777 14.3783Z" fill="#117302" stroke="#4E7E4C" stroke-width="0.01"/>
<path d="M15.5694 23.2259L15.568 23.2198L15.5655 23.2228C15.3958 23.4331 15.2502 23.5904 15.1237 23.727C15.1144 23.7371 15.1051 23.7471 15.096 23.757C14.9632 23.9006 14.8518 24.0234 14.7559 24.1652C14.5639 24.4489 14.4341 24.8083 14.3161 25.5631C14.2779 25.8079 14.2002 25.9529 14.1033 26.0484C14.0063 26.144 13.8896 26.1904 13.7718 26.2373L13.7715 26.2374C13.654 26.2841 13.5355 26.3312 13.4369 26.4284C13.3383 26.5256 13.26 26.6725 13.2214 26.9178C13.1758 26.9689 13.129 27.0202 13.0822 27.0717C12.856 27.3201 12.6264 27.5724 12.4918 27.8217C12.3152 28.1491 12.3483 28.4893 12.3832 28.7409C12.3858 28.7597 12.3884 28.7781 12.3909 28.7958C12.3969 28.8375 12.4024 28.8763 12.4064 28.9116C12.4121 28.962 12.4147 29.0049 12.411 29.0392C12.4073 29.0735 12.3975 29.0982 12.3793 29.1131C12.3613 29.1279 12.3337 29.134 12.2923 29.1284C12.2004 29.116 12.1266 29.0802 12.0672 29.0238C12.0077 28.9674 11.9623 28.8901 11.9275 28.7944C11.8578 28.603 11.831 28.3389 11.8174 28.0236C11.8109 27.875 11.8075 27.7151 11.8038 27.5462C11.7919 26.9994 11.7779 26.3588 11.6555 25.7037C11.6967 25.2378 11.7407 24.7826 11.7972 24.3852C11.8537 23.9875 11.9226 23.6482 12.0133 23.4143L12.0135 23.4144L12.0136 23.4128C12.0434 22.8968 11.8738 22.565 11.7021 22.3289C11.6592 22.2699 11.6162 22.2169 11.5762 22.1685C11.568 22.1587 11.56 22.149 11.5521 22.1395C11.5213 22.1025 11.4928 22.0682 11.4681 22.0359C11.4059 21.9546 11.3691 21.8877 11.3792 21.8231L11.3802 21.8232L11.3788 21.8202C11.1716 21.3746 10.9806 20.9013 10.8801 20.4344C10.7796 19.9681 10.7694 19.5087 10.9232 19.0898C11.1712 18.9126 11.3233 18.7492 11.4171 18.5979C11.5112 18.4462 11.5467 18.3068 11.5622 18.1783C11.5699 18.1141 11.5726 18.0525 11.5752 17.9936L11.5753 17.9907C11.5778 17.9328 11.5802 17.8775 11.587 17.8244C11.6008 17.7166 11.6328 17.6182 11.7209 17.5268C12.0719 17.1626 12.4949 16.9651 13.0057 17.0342C13.2609 17.0688 13.3962 17.1507 13.5309 17.2838C13.5846 17.3368 13.638 17.3979 13.699 17.4676C13.7148 17.4856 13.731 17.5042 13.748 17.5234C13.8301 17.6166 13.927 17.7232 14.0534 17.8436L14.0451 17.8522L14.0593 17.8443C14.3006 17.7101 14.4666 17.685 14.5888 17.7265C14.7111 17.7679 14.7913 17.8765 14.8597 18.014C14.8938 18.0827 14.9248 18.1583 14.9566 18.2359L14.9571 18.2371C14.9888 18.3143 15.0212 18.3935 15.0582 18.4695C15.1326 18.6223 15.2257 18.7629 15.3686 18.8499C15.5234 18.9442 15.7058 19.0293 15.8945 19.1166L15.9135 19.1254C16.0964 19.2099 16.2845 19.2969 16.4593 19.3969C16.821 19.6037 17.1241 19.8652 17.2035 20.273C17.2327 20.4232 17.2053 20.5339 17.1526 20.6423C17.1263 20.6963 17.0939 20.7496 17.0589 20.8071L17.058 20.8085C17.0228 20.8665 16.985 20.9287 16.9488 20.9996C16.8039 21.2835 16.6849 21.7059 16.8451 22.5635C16.8383 22.6057 16.8139 22.6477 16.7758 22.689C16.7374 22.7307 16.6854 22.7713 16.6243 22.8104C16.5021 22.8887 16.3441 22.9604 16.1875 23.0213C16.031 23.0822 15.8762 23.1321 15.7605 23.1669C15.7026 23.1842 15.6546 23.1978 15.621 23.207L15.582 23.2175L15.5718 23.2202L15.5692 23.2208L15.5685 23.221L15.5683 23.2211L15.5683 23.2211L15.5694 23.2259Z" fill="#117302" stroke="#4E7E4C" stroke-width="0.01"/>
<path d="M12.1503 18.1598L12.1559 18.1583L12.1466 18.1563C12.1195 18.1504 12.0934 18.1309 12.0679 18.0993C12.0425 18.0678 12.0182 18.0247 11.9946 17.9727C11.9474 17.8685 11.9037 17.7292 11.8603 17.5765C11.8409 17.508 11.8215 17.4367 11.8019 17.3648C11.7345 17.1168 11.6648 16.8607 11.5819 16.6791C11.5554 16.6211 11.5334 16.5639 11.5119 16.5083C11.5029 16.4848 11.4939 16.4616 11.4848 16.4387C11.4541 16.3617 11.4213 16.2884 11.3754 16.2216C11.2839 16.0881 11.1409 15.9812 10.8607 15.92C10.8431 15.864 10.8378 15.7641 10.8392 15.6408C10.8407 15.5157 10.8491 15.3675 10.8582 15.2183C10.8595 15.1973 10.8608 15.1763 10.8621 15.1554C10.87 15.0274 10.8778 14.9009 10.8816 14.7905C10.8859 14.6621 10.8849 14.5546 10.872 14.491L10.8671 14.492L10.8622 14.493L10.8602 14.4934L10.4298 15.1459C10.3501 15.0711 10.3277 14.9419 10.3286 14.7682C10.329 14.6801 10.3354 14.581 10.343 14.4725C10.3438 14.4598 10.3447 14.447 10.3457 14.434C10.3525 14.3363 10.3599 14.2314 10.3645 14.1206L10.3647 14.1206L10.3645 14.1194L10.3044 13.8197L10.3044 13.8197L10.3043 13.8191C10.3014 13.8102 10.2985 13.8012 10.2957 13.7922C10.2546 13.6639 10.2127 13.5329 10.2225 13.4116C10.2358 13.2457 10.2887 13.0002 10.3473 12.7569C10.3753 12.6409 10.4045 12.5253 10.4314 12.4193C10.4608 12.3031 10.4874 12.1984 10.5061 12.1168C10.5626 11.8715 10.6664 11.7357 10.7627 11.6309C10.7792 11.613 10.7955 11.5959 10.8114 11.5793C10.8418 11.5475 10.8706 11.5174 10.8954 11.4867C10.9334 11.4396 10.9628 11.3902 10.9762 11.3287C10.9951 11.2425 11.014 11.1489 11.0333 11.0533C11.0732 10.8561 11.1147 10.6505 11.161 10.4851L11.1562 10.4838L11.1514 10.4825L11.1458 10.4809L9.6374 10.8071L9.63739 10.8071L9.63684 10.8073C9.62098 10.8127 9.60626 10.8161 9.59273 10.8174C9.58385 10.7658 9.60102 10.7152 9.63881 10.6614C9.67772 10.606 9.73807 10.5479 9.81292 10.4828C9.84983 10.4506 9.89022 10.4168 9.9332 10.3809C10.0643 10.2712 10.2194 10.1414 10.3731 9.9776L10.3731 9.97762L10.3735 9.97711L10.5491 9.7354L10.5491 9.73541L10.5492 9.73521C10.5553 9.72604 10.5613 9.71681 10.5674 9.70757C10.6461 9.58763 10.7274 9.46382 10.7989 9.39146C10.8141 9.37609 10.8382 9.36403 10.8695 9.35465C10.9008 9.3453 10.9389 9.33876 10.9815 9.3341C11.0638 9.3251 11.1624 9.32316 11.2611 9.32123C11.2647 9.32116 11.2683 9.32108 11.2719 9.32101L11.2719 9.32106L11.2725 9.32096L11.719 9.25355L11.7191 9.25459L11.7216 9.25228C11.8172 9.16397 11.9323 9.15623 12.0446 9.1526L12.0446 9.15279L12.0459 9.15238L12.364 9.05388C12.5227 9.02982 12.695 8.93554 12.8647 8.8367C12.8837 8.82561 12.9027 8.81446 12.9217 8.80334C13.0713 8.71554 13.2176 8.62974 13.3502 8.59001C13.7413 8.8438 14.0691 8.82978 14.3221 8.75697C14.4366 8.72403 14.5357 8.67905 14.6181 8.64164C14.6268 8.6377 14.6353 8.63385 14.6436 8.6301C14.6873 8.61039 14.7257 8.5937 14.7588 8.58315C14.7921 8.57258 14.8193 8.56843 14.8408 8.5731C14.911 8.5883 14.9863 8.58313 15.064 8.56801C15.1406 8.55309 15.2199 8.52839 15.299 8.50373L15.3022 8.50275C15.4623 8.45287 15.6216 8.40386 15.7615 8.43329C15.7871 8.48013 15.7986 8.5206 15.799 8.55645C15.7994 8.59273 15.7883 8.62466 15.7683 8.65406C15.7279 8.71324 15.6512 8.76198 15.5578 8.8142C15.5374 8.82558 15.5163 8.8371 15.4947 8.84892C15.3184 8.94512 15.1064 9.06087 14.9798 9.27472L14.5541 9.86074L14.5539 9.86061L14.5534 9.86204C14.5301 9.92882 14.5321 9.98671 14.5423 10.0399C14.5474 10.0664 14.5546 10.0918 14.5618 10.1164C14.5623 10.1182 14.5628 10.12 14.5633 10.1218C14.57 10.1446 14.5764 10.1667 14.581 10.1888C14.5911 10.2364 14.5929 10.2833 14.5707 10.3345C14.5484 10.3859 14.5016 10.4421 14.4132 10.5074L14.4162 10.5114L14.4192 10.5154L14.4311 10.5315L14.4129 10.5151C14.4747 10.5708 14.4975 10.6263 14.4967 10.6829C14.496 10.7399 14.4714 10.7987 14.437 10.8605L14.4414 10.8629L14.4458 10.8653L14.4459 10.8654L14.4452 10.8662C14.5297 10.7706 14.6361 10.6797 14.745 10.589C14.7572 10.5788 14.7695 10.5686 14.7818 10.5584C14.8784 10.4782 14.975 10.3979 15.058 10.3147C15.1184 10.2864 15.1515 10.2531 15.173 10.2143C15.1902 10.1832 15.1999 10.1485 15.2103 10.111C15.2128 10.1021 15.2153 10.0931 15.218 10.084C15.232 10.0358 15.2505 9.98246 15.2893 9.92344C15.3283 9.86441 15.3877 9.79946 15.484 9.72833C15.5721 9.6632 15.6518 9.63485 15.7214 9.62956C15.791 9.62428 15.851 9.64204 15.8997 9.66971C15.9485 9.6974 15.9861 9.73501 16.0107 9.76929C16.023 9.78643 16.032 9.80265 16.0376 9.81628C16.0433 9.83016 16.0452 9.84056 16.0441 9.84643C16.0437 9.84833 16.0433 9.85043 16.0429 9.85274C16.0294 9.92342 15.9799 10.1829 16.185 10.5559C16.1603 10.5839 16.1463 10.6264 16.1386 10.6768C16.1306 10.729 16.1292 10.7905 16.13 10.8551C16.1305 10.8898 16.1316 10.9255 16.1327 10.9611C16.1357 11.0584 16.1387 11.1554 16.1285 11.2341C16.1215 11.2879 16.1084 11.3321 16.0856 11.3617C16.0631 11.3909 16.0308 11.4062 15.9837 11.4016C15.9361 11.397 15.8736 11.372 15.7915 11.32C15.7096 11.2679 15.6087 11.1892 15.4846 11.0776L15.4943 11.0667L15.4785 11.0771C15.3487 11.1621 15.3034 11.2706 15.2598 11.3765L15.259 11.3787C15.2157 11.4838 15.1736 11.586 15.0526 11.6633C15.0314 11.6769 15.0177 11.6904 15.0112 11.7043C15.0045 11.7184 15.0056 11.7324 15.0126 11.7458C15.0195 11.7589 15.032 11.7714 15.0483 11.7837C15.0646 11.796 15.085 11.8082 15.1081 11.8206C15.1404 11.8379 15.1782 11.8556 15.2178 11.8741C15.2347 11.882 15.252 11.8901 15.2692 11.8983C15.327 11.9259 15.385 11.9555 15.4328 11.9886C15.4808 12.0217 15.5178 12.0578 15.5345 12.0982C15.5509 12.1381 15.5477 12.1829 15.5133 12.2345C15.4788 12.2863 15.4128 12.3448 15.3041 12.4112C15.1955 12.4776 15.0446 12.5515 14.8406 12.6345L14.8392 12.6309L14.8376 12.6381C14.8029 12.7966 14.724 12.9475 14.6311 13.097C14.5909 13.1617 14.5481 13.226 14.5052 13.2906C14.4985 13.3006 14.4919 13.3107 14.4852 13.3208C14.4356 13.3955 14.3864 13.4705 14.3414 13.5467C14.311 13.598 14.2622 13.6845 14.2028 13.79C14.0877 13.9942 13.9326 14.2695 13.7937 14.4976C13.6884 14.6706 13.5929 14.8157 13.5317 14.8818C13.5163 14.8983 13.5035 14.9095 13.4935 14.9151C13.4885 14.9178 13.4846 14.919 13.4817 14.9189C13.4791 14.9189 13.4772 14.918 13.4755 14.916C13.4736 14.9138 13.4719 14.9099 13.4708 14.9037C13.4697 14.8977 13.4693 14.8897 13.4698 14.8798C13.4706 14.8599 13.4747 14.8326 13.4826 14.7968L13.4831 14.7969L13.4825 14.7945C13.4277 14.5804 13.3714 14.4309 13.3142 14.3353C13.2572 14.24 13.1983 14.1969 13.1378 14.1993C13.0777 14.2016 13.0188 14.2487 12.9614 14.3265C12.9049 14.4032 12.849 14.5111 12.7943 14.6394C12.5799 14.4304 12.373 14.3895 12.2142 14.4748C12.0547 14.5605 11.9462 14.772 11.9272 15.0605C11.8661 15.1781 11.8549 15.2842 11.8784 15.3743C11.9019 15.4646 11.96 15.5383 12.0362 15.5911C12.1845 15.6937 12.4022 15.7179 12.5716 15.6316C12.418 15.9335 12.2719 16.2699 12.195 16.5539C12.156 16.698 12.1347 16.8289 12.1395 16.9351C12.1443 17.04 12.1746 17.1218 12.2397 17.1676C12.2397 17.5054 12.2335 17.7363 12.2243 17.8928C12.215 18.0498 12.2026 18.1314 12.1904 18.1704C12.1874 18.1802 12.1844 18.187 12.1816 18.1917C12.1788 18.1965 12.1764 18.1985 12.1748 18.1992C12.1736 18.1998 12.1724 18.1998 12.1709 18.199C12.1692 18.1981 12.1672 18.1962 12.1651 18.1934C12.1608 18.1876 12.1572 18.1794 12.1545 18.1722C12.1532 18.1687 12.1521 18.1656 12.1514 18.1634L12.1506 18.1607L12.1504 18.16L12.1504 18.1599L12.1503 18.1598Z" fill="#117302" stroke="#4E7E4C" stroke-width="0.01"/>
<path d="M20.944 9.14036L20.9438 9.14026L20.9435 9.14168C20.8732 9.46268 20.7156 9.84337 20.4949 10.1729C20.2741 10.5026 19.9907 10.7805 19.6691 10.8967L19.6685 10.8952L19.6664 10.899C19.4216 11.3376 19.1984 11.6692 19.0063 11.8639C18.9103 11.9613 18.8225 12.024 18.7441 12.0491C18.6663 12.0739 18.5979 12.0618 18.539 12.0093C18.361 11.6674 18.335 11.3711 18.309 11.0757C18.3046 11.0252 18.3001 10.9747 18.2949 10.9239C18.2593 10.5764 18.1881 10.2208 17.8358 9.78727L17.8319 9.79043L17.828 9.79358L17.8169 9.80265L17.8279 9.78753C17.7215 9.93395 17.6353 10.0314 17.5656 10.0888C17.4957 10.1463 17.4437 10.1624 17.4053 10.1493C17.3667 10.1363 17.339 10.0931 17.3197 10.0248C17.3006 9.95682 17.2905 9.86578 17.2858 9.75993C17.2788 9.60069 17.2842 9.40881 17.2897 9.21316C17.2915 9.14873 17.2933 9.0839 17.2947 9.01968C17.3003 8.7608 17.2989 8.51189 17.2615 8.34208L17.2682 8.34058L17.2577 8.33828C16.9551 8.27275 16.7032 8.17711 16.511 8.0678C16.3186 7.95844 16.1864 7.8356 16.1224 7.71588C16.0586 7.59646 16.0627 7.48036 16.1427 7.38275C16.223 7.28467 16.3806 7.20445 16.6255 7.15924L16.626 7.16214L16.629 7.15671C16.7524 6.9306 16.9684 6.78001 17.2304 6.68285C17.4923 6.5857 17.7998 6.54215 18.1054 6.52991C18.7167 6.50543 19.3196 6.60621 19.5336 6.65256L19.5331 6.65509L19.5377 6.65169C20.1586 6.1927 20.6185 6.0062 20.9434 6.01179C21.1056 6.01459 21.2341 6.06528 21.3325 6.15386C21.4309 6.24251 21.4994 6.36944 21.541 6.52526C21.6242 6.83701 21.5993 7.26325 21.4912 7.72562C21.3832 8.18787 21.1922 8.68569 20.944 9.14036Z" fill="#117302" stroke="#4E7E4C" stroke-width="0.01"/>
<path d="M14.946 25.3097L15.1015 24.9087C15.1406 24.8081 15.1957 24.7143 15.2647 24.6311L15.2961 24.5933C15.3652 24.5101 15.4203 24.4163 15.4593 24.3157L15.4938 24.2268C15.5723 24.0243 15.7148 23.8525 15.8997 23.7375L16.1201 23.6004" stroke="#F1F1F1" stroke-width="0.1"/>
<path d="M16.3723 18.8593L16.823 19.1676C17.0785 19.3424 17.2715 19.5932 17.3744 19.8842V19.8842C17.4654 20.1415 17.4819 20.4192 17.422 20.6856L17.3398 21.0513C17.2902 21.2721 17.268 21.498 17.2736 21.724L17.2791 21.94" stroke="#F1F1F1" stroke-width="0.1"/>
<path d="M23.1028 18.3604L23.2571 18.8387C23.3233 19.0438 23.464 19.217 23.6515 19.3241V19.3241C23.7773 19.396 23.883 19.4981 23.959 19.6213L24.1355 19.9072C24.27 20.1253 24.3651 20.3654 24.4162 20.6163L24.5029 21.0422C24.5723 21.3835 24.5596 21.7361 24.4658 22.0713V22.0713C24.4146 22.2538 24.3401 22.4288 24.2439 22.5922L23.9305 23.1247" stroke="#F1F1F1" stroke-width="0.1"/>
<path d="M14.2274 14.4504L14.4062 14.0948C14.4642 13.9795 14.5427 13.8755 14.6379 13.7879V13.7879C14.733 13.7002 14.8115 13.5963 14.8695 13.4809L14.8759 13.4681C14.9878 13.2456 15.1693 13.0652 15.3929 12.954L15.4866 12.9074C15.5494 12.8762 15.6074 12.8344 15.6571 12.785V12.785C15.7782 12.6646 15.8479 12.4997 15.8479 12.3296V12.3296C15.8479 12.1603 15.7805 11.9981 15.6603 11.8786L15.5814 11.8002" stroke="#F1F1F1" stroke-width="0.1"/>
<path d="M11.4716 18.0093L11.0879 18.3002L11.0664 18.3165C10.8281 18.4972 10.6335 18.7291 10.497 18.9949L10.4189 19.1471C10.326 19.3282 10.2699 19.5259 10.2539 19.7288L10.2513 19.7618C10.2272 20.0664 10.3009 20.371 10.4616 20.6314V20.6314C10.5098 20.7095 10.5504 20.7921 10.5829 20.8779L10.7649 21.3582C10.8099 21.4771 10.8661 21.5914 10.9329 21.6996L11.1523 22.0552L11.472 22.5735L11.6127 22.8337" stroke="#F1F1F1" stroke-width="0.1"/>
<path d="M25.0092 29.2917L25.1032 29.1047C25.209 28.8944 25.4251 28.7616 25.6615 28.7616V28.7616C25.7584 28.7616 25.8539 28.7392 25.9406 28.6961L26.1556 28.5892C26.2793 28.5277 26.3947 28.4509 26.4991 28.3607L26.6217 28.2546L26.7059 28.1588C26.8182 28.0311 26.9136 27.8898 26.9898 27.7382L27.1415 27.4365L27.2626 27.1958C27.3589 27.0042 27.4857 26.8292 27.6381 26.6778L27.7695 26.5471C27.8832 26.4341 28.0145 26.34 28.1583 26.2685L28.3424 26.1769C28.4291 26.1338 28.5247 26.1114 28.6216 26.1114V26.1114C28.858 26.1114 29.0741 25.9786 29.1798 25.7683L29.2738 25.5813" stroke="#F1F1F1" stroke-width="0.1"/>
<path d="M28.6735 10.0988V10.0988C28.5046 10.2641 28.2676 10.3411 28.0331 10.3068L27.8207 10.2758L27.5733 10.2396C27.4038 10.2148 27.2574 10.3576 27.279 10.5265V10.5265L27.3163 10.8179C27.3474 11.0609 27.2746 11.3056 27.1157 11.4927V11.4927V11.4927C26.9502 11.6875 26.7596 11.8598 26.5487 12.0049L26.0754 12.3305" stroke="#F1F1F1" stroke-width="0.1"/>
<path d="M21.8353 8.29231L21.6802 8.56916C21.591 8.72833 21.5442 8.90751 21.5442 9.08957V9.08957C21.5442 9.25553 21.5053 9.41932 21.4306 9.56787L21.3643 9.69981C21.3073 9.81304 21.2777 9.93789 21.2777 10.0644V10.0644C21.2777 10.2805 21.1912 10.488 21.0375 10.6408L20.8474 10.8299C20.779 10.8979 20.7176 10.9724 20.6639 11.0524L20.5086 11.2842C20.3139 11.5744 20.0467 11.8091 19.7335 11.9648L19.6785 11.9922" stroke="#F1F1F1" stroke-width="0.1"/>
</g>
<path d="M10.9619 18.678L6.9968 27.6335C6.94445 27.7517 6.90348 27.8752 6.87446 28.0022L6.53293 29.4971C6.42857 29.9539 6.42757 30.4322 6.56557 30.8858C6.72433 31.4077 6.93335 32.027 7.11607 32.6049C7.36173 33.3817 6.95791 33.508 6.55067 32.8034L2.15432 25.1965C1.73681 24.4741 1.46018 23.6772 1.3404 22.8518C1.29681 22.5515 1.33782 22.2468 1.45852 21.9742L4.35465 15.4331L10.9619 18.678Z" fill="#402319"/>
<path d="M9.96902 11.8367L12.7378 20.3445L2.00097 15.0716L9.96902 11.8367Z" fill="#402319"/>
<path d="M31.5833 15.7888L23.6153 12.5539L34.3522 7.28095L31.5833 15.7888Z" fill="#402319"/>
<path d="M26.3493 12.0795L20.4259 5.36107L19.3221 4.03898C19.0799 3.74893 18.7864 3.50896 18.4437 3.35854C17.8716 3.1074 17.1235 2.81912 16.4819 2.54554C15.8149 2.26109 15.9796 1.79043 16.7074 1.80596L22.7073 1.93398C24.7347 1.97725 26.6261 2.90999 27.9074 4.49843L32.7283 9.20016L26.3493 12.0795Z" fill="#402319"/>
<path d="M23.6154 27.9223H32.9726C33.1131 27.9223 33.2532 27.9075 33.3906 27.8781L34.732 27.5915C35.2115 27.489 35.6592 27.2719 36.0097 26.9291C36.3995 26.548 36.8509 26.0792 37.2738 25.6592C37.8279 25.1089 38.1158 25.4032 37.6983 26.0633L32.9126 33.6289C32.4901 34.2968 31.9396 34.8744 31.2929 35.3285C31.0409 35.5054 30.7405 35.6004 30.4326 35.6004H23.6154V27.9223Z" fill="#402319"/>
<path d="M18.1476 31.7615L24.2988 25.5231L24.2988 38L18.1476 31.7615Z" fill="#402319"/>
</g>
<defs>
<clipPath id="clip0_41_133">
<rect width="40" height="40" fill="white"/>
</clipPath>
</defs>
</svg>
